<?xml version="1.0" standalone="no"?>
<!DOCTYPE svg PUBLIC "-//W3C//DTD SVG 20010904//EN"
 "http://www.w3.org/TR/2001/REC-SVG-20010904/DTD/svg10.dtd">
<svg version="1.0" xmlns="http://www.w3.org/2000/svg"
 width="500.000000pt" height="500.000000pt" viewBox="65 40 370 370"
 preserveAspectRatio="xMidYMid meet">

<g transform="translate(0.000000,500.000000) scale(0.100000,-0.100000)"
fill="#094291" stroke="none">
<path d="M2699 4143 c-12 -59 -65 -183 -78 -183 -4 0 -5 30 -3 68 2 41 -1 79
-9 97 l-13 30 -3 -45 c-9 -142 -67 -287 -155 -386 -73 -82 -125 -154 -148
-206 -52 -118 -82 -131 -281 -122 -127 6 -155 4 -193 -10 -69 -27 -96 -109
-62 -190 16 -39 42 -61 31 -27 -9 31 2 56 32 70 25 12 26 11 19 -20 l-6 -31
70 7 c45 5 70 3 70 -3 0 -15 -340 -300 -519 -437 -14 -11 -34 -27 -45 -37 -39
-35 -90 -53 -156 -53 -36 0 -74 4 -85 9 -15 6 -14 4 4 -9 31 -23 95 -30 151
-15 25 6 56 14 69 17 13 3 26 1 30 -6 6 -9 15 -9 35 -1 39 14 46 13 46 -11 0
-17 4 -20 23 -15 55 16 78 18 107 8 22 -8 40 -8 68 2 20 7 54 11 75 8 20 -2
44 1 51 7 8 7 30 11 49 9 20 -1 46 6 62 16 16 11 36 15 50 12 14 -4 32 1 47
14 14 11 28 17 31 14 11 -11 46 7 52 27 4 12 15 19 30 19 31 0 118 38 128 56
4 8 19 14 32 14 13 0 30 8 37 19 7 10 22 20 33 22 11 3 26 17 33 32 8 16 21
27 33 27 10 0 36 18 58 40 44 46 60 49 87 19 85 -96 303 -255 339 -247 14 3
13 9 -10 42 -14 21 -24 40 -22 43 3 2 50 -19 106 -48 95 -50 129 -58 101 -24
-6 8 -47 40 -91 72 -43 31 -76 59 -74 61 2 3 73 -30 157 -72 156 -78 237 -106
209 -73 -7 9 -47 35 -88 58 -41 23 -72 43 -69 46 2 3 62 -17 133 -45 130 -51
204 -75 211 -68 4 4 -41 26 -208 103 -123 56 -136 63 -124 63 7 0 70 -18 140
-39 188 -58 377 -108 474 -126 47 -9 94 -18 104 -20 46 -10 -6 14 -74 34 -41
12 -86 26 -100 31 -14 4 -85 27 -157 50 -73 23 -133 46 -133 51 0 5 33 9 73
10 78 1 133 12 107 22 -8 3 -45 8 -82 11 -145 11 -515 117 -724 207 -120 51
-165 77 -111 64 15 -4 39 -4 53 -1 25 7 26 8 9 26 -10 11 -26 22 -36 25 -37
12 -18 24 49 30 87 8 99 12 84 27 -17 17 -15 23 14 37 20 9 25 17 21 32 -4 15
3 28 24 47 17 14 28 31 25 39 -3 7 3 28 13 46 10 17 16 38 13 45 -2 7 4 19 14
26 11 9 15 19 10 31 -4 12 0 22 14 32 28 20 25 33 -7 34 -16 1 -39 4 -53 9
-25 7 -25 7 10 23 42 18 90 55 90 68 0 6 -14 7 -34 3 -53 -9 -60 3 -20 38 19
17 39 40 45 50 10 19 8 20 -30 13 -46 -8 -49 -4 -22 33 10 15 22 37 26 50 7
23 7 23 -25 7 -18 -9 -34 -15 -36 -12 -2 2 5 25 17 51 11 26 18 50 15 53 -2 3
-32 -14 -66 -37 -33 -24 -63 -40 -67 -36 -4 4 12 25 34 47 37 35 64 92 50 105
-2 3 -28 -26 -56 -64 -52 -71 -81 -101 -81 -86 0 5 11 26 25 47 16 23 28 57
31 90 l5 52 -33 -60 c-37 -67 -88 -138 -95 -131 -2 2 3 28 11 57 18 58 21 149
7 149 -5 0 -15 -26 -22 -57z"/>
<path d="M1021 2253 c-7 -21 -25 -72 -41 -113 -15 -41 -47 -127 -70 -190 -24
-63 -45 -121 -48 -128 -3 -10 8 -12 48 -10 l53 3 17 50 17 50 85 3 86 3 17
-56 18 -55 53 0 c30 0 54 3 53 8 0 4 -39 111 -87 237 l-87 230 -50 3 c-50 3
-51 3 -64 -35z m88 -155 c13 -40 25 -79 28 -85 3 -10 -11 -13 -51 -13 -37 0
-56 4 -56 12 0 21 44 158 50 158 4 0 17 -33 29 -72z"/>
<path d="M1427 2283 c-4 -3 -7 -111 -7 -240 l0 -233 50 0 50 0 0 95 c0 94 0
95 24 95 33 0 45 -14 91 -108 l39 -82 53 0 c29 0 53 3 53 6 0 11 -82 158 -98
177 -8 9 -13 19 -11 20 2 2 18 13 36 25 60 42 70 148 18 202 -15 16 -46 33
-70 39 -48 12 -218 15 -228 4z m213 -93 c50 -50 6 -120 -76 -120 l-44 0 0 70
0 70 50 0 c37 0 55 -5 70 -20z"/>
<path d="M2033 2278 c-5 -7 -30 -71 -56 -143 -25 -71 -62 -174 -81 -227 l-36
-98 50 0 c54 0 50 -4 80 78 l12 32 83 0 83 0 17 -55 18 -55 54 0 c48 0 54 2
48 18 -4 9 -13 35 -21 57 -7 22 -44 121 -81 220 l-68 180 -46 3 c-29 2 -49 -2
-56 -10z m107 -275 c0 -2 -26 -3 -59 -3 l-58 0 19 63 c38 123 37 123 69 27 15
-47 28 -86 29 -87z"/>
<path d="M2453 2283 l-23 -4 0 -235 0 -234 106 0 c127 0 172 12 214 55 27 28
32 40 32 83 -1 62 -16 88 -65 109 l-38 17 25 13 c47 25 57 121 16 158 -32 29
-92 44 -170 43 -41 0 -85 -3 -97 -5z m167 -78 c22 -11 30 -23 30 -42 0 -43
-26 -63 -82 -63 l-48 0 0 53 c0 30 3 57 7 60 11 12 63 7 93 -8z m49 -211 c27
-34 26 -47 -3 -81 -21 -24 -31 -27 -82 -28 l-59 0 -3 68 -4 67 65 0 c59 0 68
-3 86 -26z"/>
<path d="M2920 2051 l0 -241 125 0 125 0 0 40 0 40 -75 0 -75 0 -2 198 -3 197
-47 3 -48 3 0 -240z"/>
<path d="M3290 2101 c0 -179 1 -190 23 -221 36 -55 78 -73 163 -73 84 1 126
19 161 72 28 41 35 103 31 271 l-3 135 -47 3 -48 3 0 -166 c0 -127 -3 -173
-15 -195 -19 -36 -69 -54 -112 -40 -50 18 -58 47 -55 189 1 69 -1 145 -4 169
l-5 42 -45 0 -44 0 0 -189z"/>
<path d="M3830 2050 l0 -240 145 0 145 0 0 40 0 40 -95 0 -95 0 0 65 0 65 76
0 75 0 -3 38 -3 37 -72 3 -73 3 0 49 0 50 84 0 c47 0 88 4 91 10 3 5 3 25 -1
45 l-6 35 -134 0 -134 0 0 -240z"/>
<path d="M720 1510 l0 -80 51 0 c36 0 49 4 46 13 -2 6 -18 11 -36 11 -17 -1
-31 2 -31 6 0 5 -3 15 -6 24 -5 13 1 16 30 16 25 0 36 4 36 15 0 10 -10 15
-30 15 -23 0 -30 4 -30 20 0 16 7 20 30 20 17 0 30 5 30 10 0 6 -20 10 -45 10
l-45 0 0 -80z"/>
<path d="M1432 1579 c2 -6 8 -10 13 -10 5 0 11 4 13 10 2 6 -4 11 -13 11 -9 0
-15 -5 -13 -11z"/>
<path d="M1614 1576 c-10 -26 1 -139 14 -144 9 -3 12 17 12 77 0 49 -4 81 -10
81 -6 0 -13 -6 -16 -14z"/>
<path d="M2182 1578 c6 -18 28 -21 28 -4 0 9 -7 16 -16 16 -9 0 -14 -5 -12
-12z"/>
<path d="M2590 1578 c0 -19 62 -17 68 2 4 13 3 13 -10 2 -11 -9 -18 -10 -23
-2 -9 14 -35 13 -35 -2z"/>
<path d="M3577 1584 c-8 -8 1 -24 14 -24 5 0 9 7 9 15 0 15 -12 20 -23 9z"/>
<path d="M3752 1578 c6 -18 28 -21 28 -4 0 9 -7 16 -16 16 -9 0 -14 -5 -12
-12z"/>
<path d="M3890 1560 c0 -27 -2 -30 -20 -20 -38 21 -77 -48 -50 -90 5 -9 25
-15 49 -15 45 -1 41 -11 45 104 0 28 -4 46 -11 48 -9 3 -13 -6 -13 -27z m-5
-75 c0 -23 -4 -30 -20 -30 -15 0 -21 8 -23 33 -3 30 -1 33 20 30 18 -2 23 -9
23 -33z"/>
<path d="M4150 1565 c0 -21 -5 -25 -28 -25 -37 0 -52 -17 -52 -57 0 -37 19
-51 65 -48 l30 2 3 76 c2 49 -1 77 -8 77 -5 0 -10 -11 -10 -25z m-2 -71 c4
-29 -23 -51 -43 -34 -16 13 -20 42 -8 54 14 14 48 1 51 -20z"/>
<path d="M3150 1556 c0 -8 -6 -17 -12 -20 -10 -5 -10 -7 0 -12 6 -3 12 -23 12
-44 0 -30 4 -40 21 -45 27 -9 39 4 16 16 -22 13 -24 69 -2 69 8 0 15 5 15 10
0 6 -7 10 -15 10 -8 0 -15 7 -15 15 0 8 -4 15 -10 15 -5 0 -10 -6 -10 -14z"/>
<path d="M3490 1555 c0 -8 -5 -15 -12 -15 -9 0 -9 -3 0 -12 7 -7 12 -29 12
-49 0 -29 5 -39 21 -44 22 -7 43 5 22 12 -7 3 -13 20 -13 38 0 18 6 36 13 39
10 5 10 7 0 12 -7 3 -13 12 -13 20 0 8 -7 14 -15 14 -8 0 -15 -7 -15 -15z"/>
<path d="M856 1531 c-21 -23 -14 -38 20 -51 30 -12 31 -32 2 -30 -36 3 -44 0
-28 -10 42 -27 98 11 64 44 -8 9 -22 16 -30 16 -8 0 -14 7 -14 16 0 12 6 15
25 10 27 -7 35 8 9 18 -24 9 -29 8 -48 -13z"/>
<path d="M968 1539 c-28 -16 -22 -46 12 -58 17 -5 30 -15 30 -22 0 -7 -10 -9
-30 -5 -33 6 -42 -9 -10 -19 53 -17 84 34 35 57 -30 14 -35 43 -5 35 24 -6 27
8 4 17 -19 7 -15 8 -36 -5z"/>
<path d="M1237 1543 c-4 -3 -17 -6 -29 -7 -18 -1 -24 -8 -26 -30 -4 -35 5 -76
18 -76 5 0 10 19 12 43 2 34 7 42 23 42 16 0 21 -8 23 -43 4 -55 22 -44 22 13
0 33 -5 47 -19 54 -10 6 -21 8 -24 4z"/>
<path d="M1343 1537 c-41 -18 -42 -76 -2 -98 22 -11 59 -4 59 12 0 6 -8 8 -17
5 -26 -8 -45 8 -41 35 2 18 11 25 33 29 28 5 29 7 10 17 -14 7 -27 7 -42 0z"/>
<path d="M1518 1543 c-10 -2 -18 -9 -18 -14 0 -6 8 -8 19 -4 10 3 23 -1 30 -9
9 -11 5 -15 -23 -20 -64 -12 -53 -61 14 -62 l40 0 0 42 c0 25 -6 49 -16 58
-16 17 -17 17 -46 9z m28 -90 c-3 -3 -13 -2 -23 1 -17 7 -17 8 2 22 18 13 20
13 23 -1 2 -9 1 -19 -2 -22z"/>
<path d="M1750 1533 c-43 -30 -13 -111 36 -99 21 6 24 3 24 -19 0 -14 5 -25
10 -25 6 0 10 31 10 74 l0 74 -30 4 c-17 3 -39 -2 -50 -9z m58 -42 c3 -21 -11
-40 -30 -41 -13 0 -28 38 -22 55 10 25 48 15 52 -14z"/>
<path d="M2022 1533 c-52 -44 -18 -115 46 -97 27 7 27 8 -7 13 -48 8 -53 31
-6 31 31 0 36 3 33 21 -2 12 -12 28 -24 36 -18 12 -24 11 -42 -4z m42 -18 c7
-20 -21 -32 -37 -16 -9 9 -8 14 3 21 21 13 27 12 34 -5z"/>
<path d="M2291 1541 c-7 -5 -22 -6 -33 -3 -17 4 -19 0 -16 -48 4 -66 25 -79
30 -18 2 31 8 44 20 46 13 3 17 -6 20 -40 4 -55 22 -56 26 0 3 33 7 42 22 42
15 0 19 -9 22 -42 4 -57 28 -63 28 -7 0 52 -23 83 -51 68 -12 -6 -25 -6 -37 0
-10 5 -24 6 -31 2z"/>
<path d="M2486 1541 c-3 -5 -15 -7 -26 -4 -19 5 -20 0 -20 -71 0 -61 3 -76 15
-76 9 0 15 10 15 26 0 21 4 24 19 19 30 -9 64 30 56 63 -9 38 -46 65 -59 43z
m32 -46 c3 -28 -13 -49 -32 -42 -10 4 -16 18 -16 37 0 27 3 31 23 28 13 -2 23
-11 25 -23z"/>
<path d="M2592 1534 c-48 -33 -8 -117 48 -99 47 15 50 82 5 103 -32 15 -26 15
-53 -4z m53 -49 c0 -23 -4 -30 -20 -30 -15 0 -21 8 -23 33 -3 30 -1 33 20 30
18 -2 23 -9 23 -33z"/>
<path d="M2733 1540 c-64 -25 -24 -122 44 -105 31 7 22 19 -14 20 -14 0 -28 6
-30 13 -3 8 7 12 32 12 31 0 36 3 33 21 -4 30 -37 49 -65 39z m37 -25 c11 -13
8 -15 -14 -15 -25 0 -33 10 -19 23 10 11 19 8 33 -8z"/>
<path d="M2913 1543 c-7 -2 -13 -9 -13 -14 0 -6 6 -9 13 -8 44 5 52 -16 8 -24
-61 -12 -45 -68 17 -63 34 3 37 6 40 39 2 26 -3 42 -17 56 -22 22 -27 23 -48
14z m35 -75 c-7 -19 -38 -22 -38 -4 0 10 9 16 21 16 12 0 19 -5 17 -12z"/>
<path d="M3253 1538 c-62 -29 -18 -124 48 -103 26 9 16 19 -18 20 -14 0 -28 6
-30 13 -3 8 7 12 30 12 41 0 49 7 36 31 -14 27 -41 38 -66 27z m37 -18 c0 -20
-5 -25 -20 -22 -23 6 -26 12 -10 22 20 13 30 12 30 0z"/>
<path d="M3401 1541 c-7 -5 -22 -6 -33 -3 -17 4 -19 0 -16 -48 4 -67 25 -79
30 -18 2 35 7 43 23 43 16 0 21 -8 23 -35 6 -58 22 -60 22 -2 0 54 -21 80 -49
63z"/>
<path d="M3663 1538 c-23 -11 -37 -47 -27 -72 9 -23 41 -38 64 -31 26 8 25 22
-1 21 -12 -1 -26 6 -32 15 -15 24 -1 49 28 49 28 0 34 15 9 24 -9 3 -16 6 -17
5 -1 0 -12 -5 -24 -11z"/>
<path d="M3973 1543 c-21 -8 -15 -23 8 -20 33 3 34 -20 2 -28 -62 -15 -47 -65
18 -62 l41 1 -5 49 c-5 58 -25 76 -64 60z m35 -75 c-7 -19 -38 -22 -38 -4 0
10 9 16 21 16 12 0 19 -5 17 -12z"/>
<path d="M4232 1537 c-25 -11 -37 -45 -27 -76 7 -22 45 -37 70 -27 24 9 17 22
-12 21 -14 0 -28 6 -30 13 -3 8 7 12 31 12 37 0 43 8 26 39 -13 25 -30 30 -58
18z m36 -30 c2 -10 -3 -17 -12 -17 -18 0 -29 16 -21 31 9 14 29 6 33 -14z"/>
<path d="M1072 1528 c-17 -17 -15 -64 4 -82 17 -18 60 -21 69 -6 3 6 -4 10
-18 10 -14 0 -30 7 -37 15 -11 13 -7 15 24 15 28 0 36 4 36 18 0 24 -19 42
-45 42 -12 0 -26 -5 -33 -12z m54 -9 c9 -16 -12 -33 -31 -25 -14 5 -15 9 -5
21 15 18 26 19 36 4z"/>
<path d="M1432 1488 c4 -67 22 -65 26 2 2 40 0 50 -13 50 -13 0 -15 -10 -13
-52z"/>
<path d="M1870 1491 c0 -41 3 -51 20 -56 12 -4 27 -1 35 5 11 9 15 9 15 1 0
-6 5 -11 10 -11 6 0 10 25 10 55 0 30 -4 55 -10 55 -5 0 -10 -18 -10 -40 0
-28 -5 -43 -16 -47 -21 -8 -34 13 -34 55 0 17 -4 32 -10 32 -5 0 -10 -22 -10
-49z"/>
<path d="M2182 1488 c4 -74 28 -77 28 -4 0 44 -3 56 -16 56 -12 0 -14 -10 -12
-52z"/>
<path d="M3010 1496 c0 -52 13 -65 60 -61 35 2 35 3 38 54 2 40 0 51 -12 51
-10 0 -16 -13 -18 -42 -2 -31 -8 -44 -20 -46 -15 -3 -18 4 -18 42 0 34 -4 46
-15 46 -11 0 -15 -12 -15 -44z"/>
<path d="M3578 1501 c-4 -45 -1 -61 13 -61 5 0 9 23 9 50 0 59 -16 67 -22 11z"/>
<path d="M3752 1488 c4 -67 22 -65 26 2 2 40 0 50 -13 50 -13 0 -15 -10 -13
-52z"/>
</g>
</svg>
